<?xml version="1.0" encoding="iso-8859-1"?>
<!-- Generator: Adobe Illustrator 19.0.0, SVG Export Plug-In . SVG Version: 6.00 Build 0)  -->
<svg xmlns="http://www.w3.org/2000/svg" xmlns:xlink="http://www.w3.org/1999/xlink" version="1.1" id="Capa_1" x="0px" y="0px" viewBox="0 0 465 465" style="enable-background:new 0 0 465 465;" xml:space="preserve" width="512" height="512">
<g>
	<path style="fill:#1895C2;" d="M258.64,18.63l2.98,38.07h-55.69l2.98-38.07c0.48-6.12,5.89-11.13,12.03-11.13h25.67   C252.75,7.5,258.16,12.51,258.64,18.63z"/>
	<rect x="180.04" y="56.7" style="fill:#6ECDFB;" width="104.92" height="83.83"/>
	<path style="fill:#FFE76D;" d="M306.33,140.53H158.67c-27.12,0-49.1,21.99-49.1,49.11v218.75c0,27.12,21.98,49.11,49.1,49.11   h147.66c27.12,0,49.1-21.99,49.1-49.11V189.64C355.43,162.52,333.45,140.53,306.33,140.53z M232.5,384.85   c-28.97,0-52.46-23.48-52.46-52.45c0-33.39,52.46-119.23,52.46-119.23s52.46,85.84,52.46,119.23   C284.96,361.37,261.47,384.85,232.5,384.85z"/>
	<path style="fill:#1895C2;" d="M284.96,332.4c0,28.97-23.49,52.45-52.46,52.45s-52.46-23.48-52.46-52.45   c0-33.39,52.46-119.23,52.46-119.23S284.96,299.01,284.96,332.4z"/>
	<path style="fill:#591200;" d="M306.326,133.029h-13.869V56.697c0-4.143-3.358-7.5-7.5-7.5H268.56l-2.44-31.155   C265.341,8.094,256.589,0,246.61,0h-25.667c-9.978,0-18.73,8.093-19.509,18.041l-2.439,31.156h-18.951c-4.142,0-7.5,3.357-7.5,7.5   v76.332h-13.869c-31.214,0-56.608,25.395-56.608,56.608v218.754c0,31.214,25.395,56.608,56.608,56.608h147.651   c31.214,0,56.608-25.395,56.608-56.608V189.638C362.934,158.424,337.54,133.029,306.326,133.029z M187.543,64.197h45.623   c4.142,0,7.5-3.357,7.5-7.5s-3.358-7.5-7.5-7.5H214.04l2.348-29.984c0.173-2.205,2.344-4.213,4.555-4.213h25.667   c2.211,0,4.382,2.008,4.555,4.213l2.981,38.07c0.306,3.902,3.562,6.914,7.477,6.914h15.833v68.832h-89.913V64.197z    M347.934,408.392c0,22.943-18.666,41.608-41.608,41.608H158.674c-22.943,0-41.608-18.665-41.608-41.608V189.638   c0-22.943,18.666-41.608,41.608-41.608h147.651c22.943,0,41.608,18.665,41.608,41.608V408.392z"/>
	<path style="fill:#591200;" d="M232.5,205.675c-2.613,0-5.037,1.359-6.4,3.589c-5.481,8.971-53.557,88.637-53.557,123.134   c0,33.061,26.896,59.957,59.957,59.957s59.957-26.896,59.957-59.957c0-34.497-48.075-114.163-53.557-123.134   C237.537,207.034,235.113,205.675,232.5,205.675z M232.5,377.354c-24.789,0-44.957-20.168-44.957-44.957   c0-22.395,28.28-75.799,44.957-104.539c16.677,28.734,44.956,82.132,44.956,104.539C277.457,357.187,257.289,377.354,232.5,377.354   z"/>
	<path style="fill:#591200;" d="M215.015,79.197c-4.142,0-7.5,3.357-7.5,7.5v23.832c0,4.143,3.358,7.5,7.5,7.5s7.5-3.357,7.5-7.5   V86.697C222.515,82.555,219.157,79.197,215.015,79.197z"/>
	<path style="fill:#591200;" d="M249.985,79.197c-4.142,0-7.5,3.357-7.5,7.5v23.832c0,4.143,3.358,7.5,7.5,7.5s7.5-3.357,7.5-7.5   V86.697C257.485,82.555,254.127,79.197,249.985,79.197z"/>
</g>















</svg>
