<?xml version="1.0" encoding="iso-8859-1"?>
<!-- Generator: Adobe Illustrator 19.0.0, SVG Export Plug-In . SVG Version: 6.00 Build 0)  -->
<svg xmlns="http://www.w3.org/2000/svg" xmlns:xlink="http://www.w3.org/1999/xlink" version="1.1" id="Capa_1" x="0px" y="0px" viewBox="0 0 465 465" style="enable-background:new 0 0 465 465;" xml:space="preserve" width="512" height="512">
<g>
	<path style="fill:#1895C2;" d="M380.17,132.51c-8.18,6.16-18.35,9.83-29.37,9.83c-16.2,0-30.5-7.9-39.43-20   c-8.91,12.1-23.25,20-39.44,20c-16.18,0-30.5-7.9-39.42-20c-8.94,12.1-23.26,20-39.44,20c-16.19,0-30.5-7.9-39.43-20   c-8.91,12.1-23.26,20-39.44,20c-11.03,0-21.19-3.67-29.37-9.83c8.67-41.43,71.48-73.58,147.67-73.58S371.5,91.08,380.17,132.51z"/>
	<path style="fill:#6ECDFB;" d="M380.17,132.51c0.67,3.23,1.02,6.5,1.02,9.83c0,46.07-66.57,83.41-148.69,83.41   S83.81,188.41,83.81,142.34c0-3.33,0.35-6.6,1.02-9.83c8.18,6.16,18.34,9.83,29.37,9.83c16.18,0,30.53-7.9,39.44-20   c8.93,12.1,23.24,20,39.43,20c16.18,0,30.5-7.9,39.44-20c8.92,12.1,23.24,20,39.42,20c16.19,0,30.53-7.9,39.44-20   c8.93,12.1,23.23,20,39.43,20C361.82,142.34,371.99,138.67,380.17,132.51z"/>
	<path style="fill:#FF6A2E;" d="M380.17,132.51c-8.67-41.43-71.48-73.58-147.67-73.58s-139,32.15-147.67,73.58   c-0.67,3.23-1.02,6.5-1.02,9.83c0,46.07,66.57,83.41,148.69,83.41s148.69-37.34,148.69-83.41   C381.19,139.01,380.84,135.74,380.17,132.51z M411.6,122.52c11.85,36.95,45.9,132.22,45.9,156.98c0,50.35-30.08,96.11-82.53,125.53   c-39.3,22.04-89.89,34.18-142.47,34.18s-103.17-12.14-142.47-34.18C37.58,375.61,7.5,329.85,7.5,279.5   c0-24.76,34.05-120.03,45.9-156.98c8.3-25.86,27.2-50.94,57.74-68.06C144.1,35.97,187.2,25.79,232.5,25.79s88.4,10.18,121.36,28.67   C384.4,71.58,403.3,96.66,411.6,122.52z"/>
	<path style="fill:#591200;" d="M341.312,76.823c-29.187-16.372-67.83-25.389-108.812-25.389c-17.229,0-34.151,1.597-50.297,4.747   c-4.066,0.793-6.719,4.732-5.926,8.797c0.793,4.065,4.731,6.724,8.797,5.925c15.202-2.966,31.158-4.469,47.426-4.469   c38.453,0,74.49,8.335,101.473,23.471c25.614,14.368,39.721,32.991,39.721,52.438s-14.106,38.069-39.721,52.437   c-26.982,15.135-63.02,23.471-101.473,23.471s-74.49-8.335-101.473-23.471c-25.614-14.368-39.721-32.99-39.721-52.437   c0-25.202,24.838-49.591,64.819-63.649c3.908-1.374,5.962-5.655,4.588-9.563c-1.373-3.907-5.658-5.965-9.563-4.587   c-46.865,16.478-74.845,45.561-74.845,77.799c0,25.111,16.827,48.38,47.382,65.52c29.187,16.372,67.83,25.388,108.812,25.388   s79.625-9.017,108.812-25.388c30.555-17.14,47.382-40.408,47.382-65.52S371.866,93.962,341.312,76.823z"/>
	<path style="fill:#591200;" d="M428.14,148.585c-3.769-11.24-7.023-20.947-9.402-28.361c-9.585-29.865-31.323-55.546-61.21-72.31   C323.47,28.81,279.067,18.288,232.5,18.288S141.53,28.81,107.473,47.914c-29.888,16.765-51.625,42.445-61.21,72.31   c-2.379,7.414-5.634,17.122-9.402,28.361C17.436,206.517,0,260.122,0,279.497c0,53.148,31.476,101.286,86.357,132.071   c40.401,22.663,92.303,35.144,146.143,35.144s105.741-12.481,146.143-35.144C433.524,380.783,465,332.645,465,279.497   C465,260.122,447.564,206.517,428.14,148.585z M371.305,398.486c-38.197,21.426-87.492,33.226-138.805,33.226   s-100.607-11.8-138.805-33.226C43.684,370.432,15,327.062,15,279.497c0-18.531,22.587-85.895,36.082-126.143   c3.785-11.29,7.055-21.04,9.464-28.546c8.422-26.244,27.694-48.906,54.265-63.812c31.854-17.868,73.65-27.708,117.689-27.708   s85.836,9.84,117.689,27.708c26.57,14.905,45.843,37.567,54.265,63.812c2.409,7.507,5.679,17.257,9.464,28.546   C427.413,193.602,450,260.965,450,279.497C450,327.062,421.316,370.432,371.305,398.486z"/>
	<path style="fill:#591200;" d="M153.641,114.843c-2.385,0.001-4.626,1.134-6.039,3.052c-7.816,10.612-20.303,16.948-33.402,16.948   c-4.143,0-7.5,3.358-7.5,7.5s3.357,7.5,7.5,7.5c14.771,0,28.963-5.904,39.444-16.122c10.486,10.219,24.672,16.122,39.424,16.122   c14.75,0,28.939-5.905,39.437-16.127c10.486,10.222,24.675,16.127,39.43,16.127c14.771,0,28.962-5.904,39.442-16.122   c10.487,10.219,24.673,16.122,39.425,16.122c4.143,0,7.5-3.358,7.5-7.5s-3.357-7.5-7.5-7.5c-13.273,0-25.445-6.179-33.393-16.952   c-1.414-1.917-3.653-3.048-6.035-3.048c-2.386,0.001-4.626,1.134-6.039,3.052c-7.815,10.612-20.302,16.948-33.4,16.948   c-13.274,0-25.444-6.179-33.391-16.952c-1.414-1.916-3.652-3.047-6.033-3.048c-2.383,0-4.621,1.129-6.035,3.043   c-7.961,10.776-20.138,16.957-33.407,16.957c-13.274,0-25.444-6.179-33.391-16.952   C158.263,115.974,156.022,114.843,153.641,114.843z"/>
</g>















</svg>
